ply
format ascii 1.0
comment dumped by artur@interfaces-ufc-br
element vertex 213
property float x
property float y
property float z
end_header
9.377300e-01 3.376300e-01 0.000000e+00
9.080500e-01 3.564100e-01 0.000000e+00
8.191500e-01 3.200000e-01 0.000000e+00
9.719200e-01 2.780000e-01 0.000000e+00
9.440000e-01 2.947400e-01 0.000000e+00
9.811100e-01 2.424700e-01 0.000000e+00
9.365500e-01 2.614300e-01 0.000000e+00
9.163100e-01 2.744200e-01 0.000000e+00
8.192100e-01 2.931500e-01 0.000000e+00
9.070100e-01 2.410900e-01 0.000000e+00
8.323900e-01 2.339800e-01 0.000000e+00
9.918500e-01 2.116000e-01 0.000000e+00
8.926400e-01 2.117400e-01 0.000000e+00
8.508200e-01 2.121200e-01 0.000000e+00
8.104400e-01 3.222200e-01 0.000000e+00
7.445900e-01 3.219200e-01 0.000000e+00
6.992700e-01 3.227800e-01 0.000000e+00
8.102000e-01 2.931500e-01 0.000000e+00
7.550400e-01 2.976500e-01 0.000000e+00
8.102000e-01 2.439900e-01 0.000000e+00
7.499500e-01 2.472300e-01 0.000000e+00
6.804900e-01 2.976800e-01 0.000000e+00
6.650900e-01 2.900200e-01 0.000000e+00
6.944100e-01 2.526000e-01 0.000000e+00
6.280700e-01 2.218700e-01 0.000000e+00
5.870600e-01 3.219900e-01 0.000000e+00
5.212500e-01 3.195500e-01 0.000000e+00
4.935100e-01 3.228200e-01 0.000000e+00
4.431300e-01 3.216900e-01 0.000000e+00
5.867800e-01 2.929000e-01 0.000000e+00
5.343600e-01 2.916400e-01 0.000000e+00
5.930800e-01 2.413400e-01 0.000000e+00
5.357000e-01 2.444000e-01 0.000000e+00
5.004300e-01 3.123500e-01 0.000000e+00
4.410700e-01 2.971100e-01 0.000000e+00
5.072700e-01 2.219300e-01 0.000000e+00
4.395700e-01 2.397600e-01 0.000000e+00
8.105000e-01 2.111200e-01 0.000000e+00
7.355500e-01 2.114000e-01 0.000000e+00
6.990700e-01 2.108200e-01 0.000000e+00
6.332700e-01 2.115400e-01 0.000000e+00
5.916500e-01 2.120100e-01 0.000000e+00
5.247700e-01 2.149100e-01 0.000000e+00
4.937500e-01 2.100600e-01 0.000000e+00
4.384000e-01 1.963200e-01 0.000000e+00
4.342500e-01 1.605200e-01 0.000000e+00
3.787000e-01 3.217300e-01 0.000000e+00
3.344400e-01 3.216000e-01 0.000000e+00
2.381500e-01 3.219900e-01 0.000000e+00
3.788000e-01 2.931500e-01 0.000000e+00
3.305800e-01 3.107300e-01 0.000000e+00
3.788000e-01 2.439900e-01 0.000000e+00
3.024900e-01 2.918900e-01 0.000000e+00
2.349200e-01 2.944600e-01 0.000000e+00
2.946500e-01 2.439900e-01 0.000000e+00
2.351400e-01 2.417200e-01 0.000000e+00
1.883600e-01 3.227700e-01 0.000000e+00
1.599200e-01 3.217600e-01 0.000000e+00
8.642000e-02 3.218100e-01 0.000000e+00
3.999400e-02 3.228300e-01 0.000000e+00
2.003900e-01 3.121100e-01 0.000000e+00
1.417000e-01 2.950600e-01 0.000000e+00
2.092100e-01 2.233200e-01 0.000000e+00
1.388400e-01 2.422700e-01 0.000000e+00
8.512300e-02 2.944100e-01 0.000000e+00
4.844600e-02 3.127900e-01 0.000000e+00
8.695700e-02 2.439900e-01 0.000000e+00
3.788000e-01 2.118900e-01 0.000000e+00
2.946500e-01 1.932300e-01 0.000000e+00
2.375500e-01 1.934800e-01 0.000000e+00
2.946300e-01 1.605400e-01 0.000000e+00
2.377600e-01 1.605400e-01 0.000000e+00
1.901600e-01 2.103800e-01 0.000000e+00
1.570400e-01 2.124500e-01 0.000000e+00
8.678000e-02 2.116900e-01 0.000000e+00
1.274600e-02 3.216800e-01 0.000000e+00
-7.571500e-02 3.209500e-01 0.000000e+00
-1.062200e-01 3.230400e-01 0.000000e+00
-1.639100e-01 3.211800e-01 0.000000e+00
8.841100e-04 2.948700e-01 0.000000e+00
-5.756800e-02 2.945700e-01 0.000000e+00
-3.433300e-03 2.439900e-01 0.000000e+00
-5.518500e-02 2.418500e-01 0.000000e+00
-1.098300e-01 3.135200e-01 0.000000e+00
-1.508200e-01 2.945300e-01 0.000000e+00
-1.153400e-01 2.204900e-01 0.000000e+00
-1.515500e-01 2.438100e-01 0.000000e+00
-1.912000e-01 3.217300e-01 0.000000e+00
-2.810000e-01 3.185000e-01 0.000000e+00
-3.079100e-01 3.230700e-01 0.000000e+00
-3.385400e-01 3.214800e-01 0.000000e+00
-2.124800e-01 2.980500e-01 0.000000e+00
-2.637200e-01 2.990500e-01 0.000000e+00
-2.256200e-01 2.439900e-01 0.000000e+00
-2.503500e-01 2.371000e-01 0.000000e+00
-2.994100e-01 3.119100e-01 0.000000e+00
-3.584500e-01 2.954000e-01 0.000000e+00
-2.923100e-01 2.223600e-01 0.000000e+00
-3.610100e-01 2.417200e-01 0.000000e+00
-3.439300e-03 2.112900e-01 0.000000e+00
-7.306000e-02 2.130400e-01 0.000000e+00
-1.057900e-01 2.099000e-01 0.000000e+00
-1.364200e-01 2.141100e-01 0.000000e+00
-2.256200e-01 1.932300e-01 0.000000e+00
-2.443900e-01 1.979900e-01 0.000000e+00
-2.259100e-01 1.604100e-01 0.000000e+00
-2.346600e-01 1.608200e-01 0.000000e+00
-3.077000e-01 2.099800e-01 0.000000e+00
-3.413000e-01 2.123900e-01 0.000000e+00
-4.055100e-01 3.217800e-01 0.000000e+00
-5.056800e-01 3.218000e-01 0.000000e+00
-4.173200e-01 3.084400e-01 0.000000e+00
-4.423700e-01 2.885900e-01 0.000000e+00
-4.159100e-01 2.200400e-01 0.000000e+00
-4.480300e-01 2.423600e-01 0.000000e+00
-5.062300e-01 2.931500e-01 0.000000e+00
-5.091600e-01 2.429600e-01 0.000000e+00
-5.701900e-01 2.233400e-01 0.000000e+00
-5.961100e-01 3.219900e-01 0.000000e+00
-6.510400e-01 3.219900e-01 0.000000e+00
-7.256600e-01 3.212900e-01 0.000000e+00
-7.553800e-01 3.230100e-01 0.000000e+00
-5.965300e-01 2.931500e-01 0.000000e+00
-6.506300e-01 2.931500e-01 0.000000e+00
-5.947800e-01 2.424500e-01 0.000000e+00
-6.506300e-01 2.439900e-01 0.000000e+00
-7.061800e-01 2.952500e-01 0.000000e+00
-7.620300e-01 3.128400e-01 0.000000e+00
-7.030200e-01 2.418300e-01 0.000000e+00
-7.706200e-01 2.213300e-01 0.000000e+00
-4.154500e-01 2.109900e-01 0.000000e+00
-4.500400e-01 1.981200e-01 0.000000e+00
-4.475000e-01 1.673000e-01 0.000000e+00
-5.203100e-01 2.123600e-01 0.000000e+00
-5.518200e-01 2.104500e-01 0.000000e+00
-5.965000e-01 2.113100e-01 0.000000e+00
-6.506400e-01 2.113000e-01 0.000000e+00
-7.221600e-01 2.128600e-01 0.000000e+00
-7.556000e-01 2.098700e-01 0.000000e+00
-7.834300e-01 3.197300e-01 0.000000e+00
-8.757200e-01 3.211100e-01 0.000000e+00
-9.051900e-01 3.226300e-01 0.000000e+00
-9.552600e-01 3.412700e-01 0.000000e+00
-7.977400e-01 2.927100e-01 0.000000e+00
-8.561800e-01 2.949700e-01 0.000000e+00
-7.997500e-01 2.432600e-01 0.000000e+00
-8.521000e-01 2.424600e-01 0.000000e+00
-9.115700e-01 3.122400e-01 0.000000e+00
-9.503100e-01 2.957200e-01 0.000000e+00
-9.222300e-01 2.213000e-01 0.000000e+00
-9.497900e-01 2.435400e-01 0.000000e+00
-7.864100e-01 2.150500e-01 0.000000e+00
-8.709400e-01 2.123700e-01 0.000000e+00
-9.063700e-01 2.093400e-01 0.000000e+00
-9.377700e-01 2.148100e-01 0.000000e+00
2.224400e-01 -2.960000e-02 0.000000e+00
2.704000e-01 -7.816700e-02 0.000000e+00
2.441600e-01 -5.688300e-02 0.000000e+00
2.731100e-01 -1.065300e-01 0.000000e+00
2.617200e-01 -1.065300e-01 0.000000e+00
2.704000e-01 -1.349000e-01 0.000000e+00
2.442800e-01 -1.559900e-01 0.000000e+00
1.901700e-01 -2.529700e-02 0.000000e+00
1.424800e-01 -2.428000e-02 0.000000e+00
1.981500e-01 -3.743200e-02 0.000000e+00
1.424800e-01 -3.515000e-02 0.000000e+00
9.331300e-02 -2.428000e-02 0.000000e+00
4.414400e-02 -2.428000e-02 0.000000e+00
9.331300e-02 -3.515000e-02 0.000000e+00
4.414400e-02 -3.515000e-02 0.000000e+00
2.115600e-01 -1.735700e-01 0.000000e+00
2.911400e-02 -1.259400e-01 0.000000e+00
3.658300e-02 -1.561900e-01 0.000000e+00
2.244600e-01 -2.051400e-01 0.000000e+00
2.208000e-01 -2.369000e-01 0.000000e+00
2.129000e-01 -2.080000e-01 0.000000e+00
1.931600e-01 -2.567200e-01 0.000000e+00
1.449700e-01 -2.748400e-01 0.000000e+00
3.016700e-02 -1.874800e-01 0.000000e+00
1.021000e-01 -2.745300e-01 0.000000e+00
1.689000e-01 -2.831000e-01 0.000000e+00
1.387500e-01 -2.864700e-01 0.000000e+00
8.699300e-02 -2.956800e-01 0.000000e+00
4.492400e-02 -3.154000e-01 0.000000e+00
-6.612500e-03 -2.428000e-02 0.000000e+00
-5.736200e-02 -2.428000e-02 0.000000e+00
-6.612500e-03 -3.515000e-02 0.000000e+00
-5.736200e-02 -3.515000e-02 0.000000e+00
-1.065300e-01 -2.428000e-02 0.000000e+00
-1.526600e-01 -2.528200e-02 0.000000e+00
-1.065300e-01 -3.515000e-02 0.000000e+00
-1.603600e-01 -3.725700e-02 0.000000e+00
8.328600e-03 -1.259000e-01 0.000000e+00
7.442000e-04 -1.560300e-01 0.000000e+00
-1.741000e-01 -1.738100e-01 0.000000e+00
-1.850200e-01 -2.954000e-02 0.000000e+00
-2.070700e-01 -5.640300e-02 0.000000e+00
-2.334800e-01 -7.764000e-02 0.000000e+00
-2.244000e-01 -1.065300e-01 0.000000e+00
-2.360400e-01 -1.065200e-01 0.000000e+00
-2.073400e-01 -1.564100e-01 0.000000e+00
-2.334800e-01 -1.354200e-01 0.000000e+00
6.108300e-03 -1.872900e-01 0.000000e+00
-6.623500e-02 -2.747200e-01 0.000000e+00
-1.757700e-01 -2.078900e-01 0.000000e+00
-1.086100e-01 -2.749400e-01 0.000000e+00
-1.558400e-01 -2.571600e-01 0.000000e+00
-7.577500e-03 -3.154600e-01 0.000000e+00
-5.081700e-02 -2.959500e-01 0.000000e+00
-1.030600e-01 -2.865300e-01 0.000000e+00
-1.319000e-01 -2.831000e-01 0.000000e+00
-1.871600e-01 -2.057100e-01 0.000000e+00
-1.836900e-01 -2.372900e-01 0.000000e+00
